<?xml version="1.0" standalone="no"?>
<!DOCTYPE svg PUBLIC "-//W3C//DTD SVG 20010904//EN"
 "http://www.w3.org/TR/2001/REC-SVG-20010904/DTD/svg10.dtd">
<svg version="1.0" xmlns="http://www.w3.org/2000/svg"
 width="500.000000pt" height="178.000000pt" viewBox="0 0 500.000000 178.000000"
 preserveAspectRatio="xMidYMid meet">

<g transform="translate(0.000000,178.000000) scale(0.100000,-0.100000)"
fill="#000000" stroke="none">
<path d="M3462 1670 c-102 -22 -193 -96 -241 -199 -22 -47 -26 -70 -26 -141 0
-76 4 -93 33 -152 109 -221 402 -260 567 -75 117 129 115 329 -5 460 -81 89
-212 131 -328 107z"/>
<path d="M285 1587 c-3 -7 -4 -145 -3 -307 l3 -295 26 -9 c14 -5 38 -6 52 -2
l26 6 3 133 3 132 235 5 235 5 48 28 c62 37 87 77 87 143 0 68 -29 111 -99
147 l-55 27 -278 0 c-215 0 -280 -3 -283 -13z m550 -81 c19 -8 41 -28 50 -47
16 -30 16 -35 1 -66 -27 -57 -58 -64 -289 -61 l-202 3 -3 93 -3 92 206 0 c155
0 214 -3 240 -14z"/>
<path d="M2818 1464 l-3 -136 35 6 c19 3 43 6 53 6 10 0 17 8 17 20 0 17 8 19
78 22 l77 3 0 40 0 40 -77 3 -78 3 0 64 0 65 -49 0 -50 0 -3 -136z"/>
<path d="M1194 1456 c-3 -8 -4 -92 -2 -187 4 -202 8 -214 100 -265 52 -28 56
-29 203 -29 167 0 206 9 262 58 56 50 63 76 63 255 0 179 -2 185 -67 180 l-38
-3 -5 -172 c-5 -172 -5 -173 -33 -200 -26 -27 -32 -28 -143 -31 -140 -4 -179
2 -210 33 -23 23 -24 29 -24 188 0 113 -4 167 -12 175 -17 17 -87 15 -94 -2z"/>
<path d="M2144 1456 c-58 -18 -101 -53 -124 -102 -18 -37 -20 -58 -18 -197 l3
-155 52 31 52 32 1 125 c1 131 4 141 50 173 20 14 48 17 153 17 168 0 207 -19
207 -100 0 -23 4 -31 14 -27 8 3 32 11 55 18 33 10 41 17 41 36 0 60 -63 124
-146 149 -60 18 -282 18 -340 0z"/>
<path d="M2855 1201 l-40 -6 3 -45 c6 -87 71 -151 171 -170 77 -14 93 -7 89
38 -3 35 -5 37 -44 42 -75 11 -114 51 -114 121 0 17 -5 28 -12 28 -7 -1 -31
-5 -53 -8z"/>
<path d="M2560 1136 l-35 -13 0 -69 c0 -65 1 -69 26 -78 14 -5 38 -6 53 -2 26
6 26 8 26 91 0 95 -1 96 -70 71z"/>
<path d="M392 804 c-60 -30 -92 -69 -99 -124 -7 -51 1 -82 33 -120 56 -66 87
-74 312 -80 l204 -5 29 -33 c37 -41 37 -73 0 -114 l-29 -33 -274 -5 -273 -5 0
-35 0 -35 250 -3 c287 -3 318 -1 371 34 63 41 79 70 79 141 0 59 -2 64 -39
102 -60 62 -101 71 -303 71 -186 0 -215 6 -247 52 -24 33 -19 64 13 100 l29
33 274 5 273 5 3 38 3 37 -278 0 -279 0 -52 -26z"/>
<path d="M1104 805 c-8 -34 11 -55 51 -55 38 0 58 19 53 52 -3 20 -10 23 -50
26 -44 3 -48 1 -54 -23z"/>
<path d="M3490 520 l0 -311 48 3 47 3 0 305 0 305 -47 3 -48 3 0 -311z"/>
<path d="M1112 688 c-13 -13 -18 -431 -6 -462 9 -22 89 -22 98 0 12 31 7 449
-6 462 -16 16 -70 16 -86 0z"/>
<path d="M1458 686 c-26 -7 -63 -25 -82 -40 -62 -47 -67 -65 -64 -258 l3 -173
45 0 45 0 5 173 5 174 29 23 c32 26 67 35 132 35 42 0 54 9 88 68 10 16 -141
15 -206 -2z"/>
<path d="M2200 691 c-88 -19 -154 -82 -166 -156 -11 -75 0 -188 22 -226 11
-19 42 -47 69 -64 l48 -30 191 -5 c119 -3 190 -9 189 -15 -12 -61 -44 -79
-152 -85 l-86 -5 -3 -37 -3 -38 87 0 c48 0 104 5 125 12 55 16 116 71 129 116
5 20 10 116 10 213 0 164 -2 179 -23 219 -16 31 -38 51 -76 73 -52 30 -59 31
-190 33 -75 2 -152 -1 -171 -5z m283 -85 c65 -27 72 -44 75 -187 l4 -129 -172
0 c-242 0 -250 6 -250 168 0 89 2 100 23 120 12 11 33 25 47 31 39 15 235 13
273 -3z"/>
<path d="M2773 694 c-19 -8 -18 -323 1 -368 18 -43 77 -91 131 -106 27 -8 96
-11 191 -8 141 3 151 4 196 30 83 49 89 68 86 275 l-3 178 -24 3 c-12 2 -34 1
-47 -2 l-24 -6 0 -169 0 -169 -36 -32 -36 -31 -144 3 c-142 3 -144 3 -171 31
-28 27 -28 28 -33 200 l-5 172 -35 2 c-19 1 -41 0 -47 -3z"/>
<path d="M3703 693 c-7 -2 -13 -20 -13 -39 l0 -34 210 0 c226 0 262 -6 294
-51 9 -13 16 -36 16 -51 l0 -28 -197 0 c-174 0 -203 -3 -240 -20 -110 -50
-109 -186 2 -240 42 -20 57 -21 222 -18 173 3 179 4 225 30 75 45 88 75 88
210 0 103 -2 119 -23 149 -30 45 -77 75 -138 88 -49 11 -422 14 -446 4z m507
-312 c0 -21 -10 -38 -35 -60 l-36 -31 -151 0 c-142 0 -153 1 -175 22 -28 26
-29 52 -3 78 19 19 33 20 210 20 l190 0 0 -29z"/>
<path d="M4577 689 c-52 -12 -87 -32 -122 -69 l-30 -31 -3 -190 -3 -190 48 3
48 3 5 171 c6 218 10 224 160 234 79 5 85 7 88 28 6 40 -14 52 -87 51 -36 -1
-83 -5 -104 -10z"/>
<path d="M1757 652 c-32 -33 -34 -42 -8 -42 11 0 33 -11 48 -24 l28 -24 5
-174 5 -173 45 0 45 0 3 173 c3 196 -1 213 -70 262 -51 37 -67 37 -101 2z"/>
</g>
</svg>
