<?xml version="1.0" standalone="no"?>
<!DOCTYPE svg PUBLIC "-//W3C//DTD SVG 20010904//EN"
 "http://www.w3.org/TR/2001/REC-SVG-20010904/DTD/svg10.dtd">
<svg version="1.0" xmlns="http://www.w3.org/2000/svg"
 width="200.000000pt" height="200.000000pt" viewBox="0 0 200.000000 200.000000"
 preserveAspectRatio="xMidYMid meet">

<g transform="translate(0.000000,200.000000) scale(0.100000,-0.100000)"
fill="#000000" stroke="none">
<path d="M1319 1363 c-79 -48 -78 -177 1 -218 108 -56 225 38 188 151 -24 73
-124 108 -189 67z"/>
<path d="M150 1239 c0 -107 2 -120 17 -117 12 2 16 15 17 48 l1 45 90 5 c96 6
130 18 140 50 20 63 -29 90 -165 90 l-100 0 0 -121z m211 81 c25 -14 24 -46
-1 -60 -11 -6 -55 -10 -98 -8 l-77 3 -1 30 c0 17 1 33 3 38 6 11 152 8 174 -3z"/>
<path d="M1117 1353 c-4 -3 -7 -26 -7 -50 0 -35 3 -43 18 -43 10 0 22 3 26 7
4 4 17 8 28 8 33 0 33 23 1 27 -22 2 -29 9 -31 31 -3 25 -20 35 -35 20z"/>
<path d="M490 1231 c0 -63 2 -71 26 -90 21 -17 41 -21 94 -21 53 0 73 4 94 21
24 19 26 27 26 90 0 62 -2 69 -20 69 -18 0 -20 -7 -20 -63 0 -36 -5 -68 -12
-75 -7 -7 -37 -12 -68 -12 -31 0 -61 5 -68 12 -7 7 -12 39 -12 75 0 56 -2 63
-20 63 -18 0 -20 -7 -20 -69z"/>
<path d="M822 1277 c-18 -19 -22 -35 -22 -85 0 -60 1 -62 20 -52 16 8 20 21
20 58 0 27 5 53 12 60 7 7 40 12 76 12 56 0 65 -3 69 -20 3 -12 12 -20 21 -18
24 5 25 25 3 47 -18 18 -34 21 -99 21 -69 0 -81 -3 -100 -23z"/>
<path d="M1128 1202 c-25 -5 -22 -29 7 -57 27 -28 75 -34 75 -10 0 8 -8 15
-19 15 -20 0 -37 16 -42 40 -2 9 -12 14 -21 12z"/>
<path d="M1007 1173 c-4 -3 -7 -17 -7 -30 0 -16 6 -23 20 -23 16 0 20 7 20 30
0 28 -17 40 -33 23z"/>
<path d="M176 1039 c-31 -25 -34 -59 -5 -85 16 -15 40 -20 103 -23 85 -3 106
-12 106 -42 0 -30 -33 -39 -134 -39 -57 0 -96 -4 -96 -10 0 -6 43 -10 110 -10
105 0 112 1 136 25 15 15 23 32 20 41 -3 9 -6 20 -6 24 0 20 -49 34 -129 40
-67 4 -86 9 -95 23 -9 15 -7 22 13 38 19 16 39 19 122 19 59 0 99 4 99 10 0 6
-43 10 -109 10 -94 0 -112 -3 -135 -21z"/>
<path d="M460 1050 c0 -5 7 -10 15 -10 8 0 15 5 15 10 0 6 -7 10 -15 10 -8 0
-15 -4 -15 -10z"/>
<path d="M1370 945 c0 -96 3 -115 15 -115 12 0 15 19 15 115 0 96 -3 115 -15
115 -12 0 -15 -19 -15 -115z"/>
<path d="M460 920 c0 -73 3 -90 15 -90 12 0 15 17 15 90 0 73 -3 90 -15 90
-12 0 -15 -17 -15 -90z"/>
<path d="M566 989 c-24 -19 -26 -27 -26 -90 0 -55 3 -69 15 -69 12 0 15 14 15
63 0 69 10 87 51 87 15 0 32 7 39 15 21 25 -61 20 -94 -6z"/>
<path d="M855 999 c-30 -18 -35 -29 -35 -86 0 -70 19 -83 122 -83 43 0 78 -4
78 -9 0 -17 -43 -41 -72 -41 -16 0 -28 -4 -28 -10 0 -19 76 -11 104 11 24 19
26 26 26 99 0 107 -13 123 -106 127 -41 2 -77 -1 -89 -8z m155 -39 c6 -12 10
-40 8 -63 l-3 -42 -62 -3 c-84 -4 -103 7 -103 61 0 24 5 48 12 55 7 7 39 12
75 12 52 0 64 -3 73 -20z"/>
<path d="M1090 945 c0 -57 3 -69 25 -90 21 -22 33 -25 93 -25 97 0 110 13 113
105 2 59 0 71 -14 73 -15 3 -17 -6 -17 -67 0 -81 -9 -91 -82 -91 -65 0 -77 14
-80 90 -2 52 -6 65 -20 68 -16 3 -18 -5 -18 -63z"/>
<path d="M1450 996 c0 -13 14 -16 88 -16 87 0 112 -8 112 -37 0 -10 -22 -13
-83 -13 -69 0 -87 -3 -100 -18 -21 -23 -22 -46 -1 -66 11 -12 36 -16 95 -16
99 0 119 15 119 88 0 73 -19 86 -136 90 -81 3 -94 2 -94 -12z m195 -97 c4 -5
-1 -19 -11 -30 -13 -14 -30 -19 -74 -19 -65 0 -92 18 -70 45 15 18 145 21 155
4z"/>
<path d="M1765 998 c-31 -18 -35 -28 -35 -100 0 -54 3 -68 15 -68 12 0 15 14
15 63 0 72 10 87 57 87 23 0 33 5 33 15 0 18 -55 20 -85 3z"/>
<path d="M707 993 c-4 -3 2 -12 13 -20 16 -12 20 -26 20 -79 0 -50 3 -64 15
-64 24 0 21 131 -3 153 -20 18 -34 21 -45 10z"/>
</g>
</svg>
